<?xml version="1.0" standalone="no"?><!DOCTYPE svg PUBLIC "-//W3C//DTD SVG 1.1//EN" "http://www.w3.org/Graphics/SVG/1.1/DTD/svg11.dtd"><svg t="1641127887818" class="icon" viewBox="0 0 1024 1024" version="1.1" xmlns="http://www.w3.org/2000/svg" p-id="3525" xmlns:xlink="http://www.w3.org/1999/xlink" width="200" height="200"><defs><style type="text/css"></style></defs><path d="M817.467017 736.162811c39.629613-39.519614 70.769309-85.639164 92.539096-137.058662C932.575893 545.964668 943.995781 489.47522 943.995781 431.255789c0-58.259431-11.419888-114.73888-33.959668-167.888361-21.799787-51.419498-52.929483-97.529048-92.569096-137.058661-39.739612-39.689612-85.949161-70.769309-137.308659-92.429098C626.918878 11.399889 570.33943 0 512 0c-58.35943 0-114.938878 11.399889-168.158358 33.879669-51.349499 21.659788-97.559047 52.739485-137.308659 92.429098-39.649613 39.609613-70.809309 85.719163-92.569096 137.058661C91.424107 316.516909 80.004219 373.006357 80.004219 431.255789c0 58.219431 11.419888 114.69888 33.939668 167.84836 21.749788 51.339499 52.909483 97.449048 92.589096 137.058662 33.489673 33.429674 72.70929 61.219402 116.608861 82.549194l2.03998 0.94999-53.139481 134.258689h-83.469185c-18.829816 0-34.129667 15.689847-34.129666 35.039658s15.299851 35.039658 34.129666 35.039658h650.033652c18.809816 0 34.109667-15.689847 34.109667-35.039658s-15.299851-35.039658-34.109667-35.039658h-85.639163l-52.599487-134.998681 1.999981-0.989991c43.379576-21.239793 82.129198-48.789524 115.098876-81.769201z m-669.893458-304.907022c0-200.578041 163.478404-363.826447 364.426441-363.826447s364.446441 163.238406 364.446441 363.826447S712.948038 795.082236 512 795.082236 147.573559 631.84383 147.573559 431.255789z m240.787648 413.065966l2.07998 0.579994c39.839611 11.689886 80.729212 17.619828 121.558813 17.619828 41.469595 0 82.91919-6.049941 123.188797-18.029824l2.119979-0.619994 42.869582 110.048925H344.971631l43.389576-109.598929z" fill="#2c2c2c" p-id="3526"></path><path d="M513.339987 291.487153c-118.438843 0-214.797902 96.169061-214.797902 214.417907s96.359059 214.417906 214.797902 214.417906 214.797902-96.169061 214.797902-214.417906-96.359059-214.417906-214.797902-214.417907z m0 67.439342c81.179207 0 147.228562 65.959356 147.228562 146.978565s-66.049355 146.978565-147.228562 146.978564c-81.159207 0-147.208562-65.959356-147.208563-146.978564s66.049355-146.978565 147.208563-146.978565z" fill="#2c2c2c" p-id="3527"></path></svg>