<?xml version="1.0" standalone="no"?><!DOCTYPE svg PUBLIC "-//W3C//DTD SVG 1.1//EN" "http://www.w3.org/Graphics/SVG/1.1/DTD/svg11.dtd"><svg t="1641128546827" class="icon" viewBox="0 0 1166 1024" version="1.1" xmlns="http://www.w3.org/2000/svg" p-id="6342" xmlns:xlink="http://www.w3.org/1999/xlink" width="227.734375" height="200"><defs><style type="text/css"></style></defs><path d="M487.358289 711.871658c-16.427807-16.427807-49.283422-16.427807-65.71123 0-10.951872 10.951872-10.951872 21.903743-10.951872 32.855615 0 10.951872 5.475936 21.903743 16.427808 32.855615l32.855615 32.855615c-82.139037-5.475936-164.278075-27.379679-240.941177-54.759359-71.187166-32.855615-120.470588-71.187166-120.470588-104.04278 0-16.427807 10.951872-38.331551 27.379679-49.283423 16.427807-16.427807 16.427807-49.283422 0-65.71123-16.427807-10.951872-27.379679-16.427807-38.331551-16.427807-16.427807 0-27.379679 5.475936-32.855615 16.427807-32.855615 27.379679-49.283422 71.187166-54.759358 114.994653 0 76.663102 60.235294 142.374332 175.229947 191.657754 93.090909 32.855615 186.181818 54.759358 284.748663 65.71123l-38.331551 38.33155c-16.427807 16.427807-16.427807 49.283422 0 65.71123 10.951872 10.951872 21.903743 10.951872 32.855615 10.951872 10.951872 0 21.903743-5.475936 32.855615-10.951872l114.994652-114.994652c16.427807-16.427807 16.427807-49.283422 0-65.71123L487.358289 711.871658zM1084.235294 536.641711c-16.427807-16.427807-49.283422-16.427807-65.71123 0l-10.951871 10.951872v5.475936c-5.475936 16.427807 0 38.331551 10.951871 49.283422 16.427807 10.951872 21.903743 27.379679 21.903743 43.807487 0 60.235294-131.42246 136.898396-344.983957 158.802139-10.951872 0-21.903743 10.951872-32.855615 16.427807s-5.475936 27.379679-5.475936 43.807487c5.475936 21.903743 21.903743 38.331551 43.807487 38.331551h5.475936c262.84492-27.379679 427.122995-125.946524 427.122995-251.893048 5.475936-43.807487-16.427807-87.614973-49.283423-114.994653z" p-id="6343"></path><path d="M405.219251 191.657754c-38.331551 60.235294-60.235294 109.518717-76.663101 147.850267-16.427807 38.331551-27.379679 71.187166-38.331551 109.518717-10.951872 32.855615-16.427807 71.187166-21.903743 109.518717H169.754011c10.951872-54.759358 27.379679-109.518717 49.283422-164.278075s54.759358-114.994652 93.090909-180.705883H114.994652V142.374332h290.224599v49.283422zM525.68984 481.882353h175.229946v71.187166h-273.796791v-27.379679c0-21.903743 5.475936-43.807487 10.951871-60.235295 5.475936-16.427807 16.427807-32.855615 32.855615-49.283422 16.427807-16.427807 32.855615-32.855615 65.71123-54.759358 27.379679-21.903743 43.807487-38.331551 54.759359-54.759359 10.951872-10.951872 10.951872-27.379679 10.951871-49.283422 0-38.331551-21.903743-54.759358-60.235294-54.759358-32.855615 0-65.71123 16.427807-98.566845 43.807486V169.754011c38.331551-21.903743 76.663102-32.855615 120.470588-32.855615 43.807487 0 76.663102 10.951872 98.566845 32.855615 21.903743 21.903743 38.331551 49.283422 38.331551 87.614973 0 21.903743-5.475936 38.331551-10.951872 54.759358-10.951872 16.427807-21.903743 27.379679-32.855615 43.807487-10.951872 16.427807-32.855615 32.855615-65.711229 54.759358-27.379679 21.903743-49.283422 32.855615-54.759359 43.807487s-10.951872 21.903743-10.951871 27.379679zM722.823529 355.935829c0-71.187166 10.951872-125.946524 38.331551-164.278075 27.379679-38.331551 65.71123-54.759358 114.994653-54.759358 93.090909 0 142.374332 71.187166 142.374331 213.561497 0 71.187166-10.951872 120.470588-38.331551 158.802139-27.379679 38.331551-65.71123 54.759358-109.518716 54.759358-98.566845 0-147.850267-71.187166-147.850268-208.085561z m87.614974-5.475936c0 93.090909 21.903743 142.374332 60.235294 142.374332 38.331551 0 60.235294-49.283422 60.235294-147.850268 0-98.566845-21.903743-147.850267-60.235294-147.850267-38.331551 5.475936-60.235294 54.759358-60.235294 153.326203z" p-id="6344"></path><path d="M1073.283422 0c-49.283422 0-93.090909 43.807487-93.090909 93.090909s43.807487 93.090909 93.090909 93.090909c49.283422 0 93.090909-43.807487 93.09091-93.090909S1122.566845 0 1073.283422 0z m0 136.898396c-21.903743 0-43.807487-21.903743-43.807486-43.807487s16.427807-38.331551 43.807486-38.331551 43.807487 21.903743 43.807487 43.807487-21.903743 38.331551-43.807487 38.331551z" p-id="6345"></path></svg>