<?xml version="1.0" standalone="no"?><!DOCTYPE svg PUBLIC "-//W3C//DTD SVG 1.1//EN" "http://www.w3.org/Graphics/SVG/1.1/DTD/svg11.dtd"><svg t="1640439279841" class="icon" viewBox="0 0 1024 1024" version="1.1" xmlns="http://www.w3.org/2000/svg" p-id="6032" xmlns:xlink="http://www.w3.org/1999/xlink" width="200" height="200"><defs><style type="text/css"></style></defs><path d="M945.2 466.2c0.3 9.3-2.8 18-9.5 26-7.3 7.3-15.7 11.3-25 12-9.3 0.7-18-2.3-26-9L512 135.7 139.3 495.3c-8 6.7-16.7 9.7-26 9-9.3-0.7-17.7-4.7-25-12-6.7-8-9.8-16.7-9.5-26 0.3-9.3 4.5-17.7 12.5-25L463.9 82.6C477.9 69.9 494 63.7 512 64c18 0.3 34 6.5 48.1 18.5l372.6 358.6c8 7.4 12.1 15.8 12.5 25.1zM859 584.9c6.9 6.7 10.7 15.9 10.5 25.5v277.5c-0.7 20.7-7.7 37.7-21 51.1-13.3 13.4-30.4 20.4-51.1 21h-571c-20.7-0.7-37.7-7.7-51.1-21-13.3-13.3-20.3-30.4-21-51.1V610.4c-0.1-19.8 15.9-36 35.7-36.1h0.3c19.8-0.1 36 15.9 36.1 35.8v277.8h143.2V647.5c0.7-20.7 7.7-37.7 21-51.1 13.3-13.4 30.4-20.4 51.1-21H582c20.7 0.7 37.7 7.7 51.1 21 13.4 13.3 20.4 30.4 21 51.1v240.4h143.3V610.4c0-19.9 16.2-36.1 36.2-36.1 9.5 0.1 18.7 3.9 25.4 10.6z m-417.2 303H582V647.5H441.8v240.4z" p-id="6033"></path></svg>