<?xml version="1.0" standalone="no"?><!DOCTYPE svg PUBLIC "-//W3C//DTD SVG 1.1//EN" "http://www.w3.org/Graphics/SVG/1.1/DTD/svg11.dtd"><svg t="1640440387409" class="icon" viewBox="0 0 1024 1024" version="1.1" xmlns="http://www.w3.org/2000/svg" p-id="11912" xmlns:xlink="http://www.w3.org/1999/xlink" width="200" height="200"><defs><style type="text/css"></style></defs><path d="M681.2 843.6H370l70.9-102c-14-2.8-27.8-6.6-41.4-11.1l-78.7 113.1-0.1 1.1v42.4l409.6-1.1v-42.4l-84.2-121.1c-13 5.3-26.2 9.8-39.7 13.6l74.8 107.5z" p-id="11913"></path><path d="M838.7 256.1c-17.9-42.2-43.4-80.2-76-112.7-32.6-32.6-70.5-58.1-112.7-76-43.7-18.5-90.2-27.9-138-27.9s-94.3 9.4-138 27.9c-42.2 17.9-80.2 43.4-112.7 76s-58.1 70.5-76 112.7c-18.5 43.7-27.9 90.2-27.9 138 0 47.9 9.4 94.3 27.9 138 17.9 42.2 43.4 80.2 76 112.7 32.6 32.6 70.5 58.1 112.7 76 8.4 3.6 16.9 6.8 25.5 9.7 13.6 4.5 27.4 8.3 41.4 11.1 23.2 4.7 47 7.1 71.1 7.1 32.2 0 63.8-4.3 94.4-12.7 13.4-3.7 26.7-8.2 39.7-13.6 1.3-0.5 2.6-1.1 4-1.6 42.2-17.9 80.2-43.4 112.7-76 32.6-32.6 58.1-70.5 76-112.7 18.5-43.7 27.9-90.2 27.9-138-0.1-47.9-9.5-94.3-28-138zM734.5 616.6C675 676 596 708.7 512 708.7S349 676 289.5 616.5s-92.1-138.3-92.1-222.4 32.7-163 92.1-222.5S428 79.5 512 79.5s163 32.7 222.5 92.1 92.1 138.4 92.1 222.5-32.7 163.1-92.1 222.5z" p-id="11914"></path><path d="M512.1 567.3c-95.5 0-173.2-77.7-173.2-173.2 0-95.5 77.7-173.2 173.2-173.2 95.5 0 173.2 77.7 173.2 173.2-0.1 95.5-77.7 173.2-173.2 173.2z m0-306.4c-73.5 0-133.2 59.7-133.2 133.2 0 73.4 59.8 133.2 133.2 133.2 73.4 0 133.2-59.7 133.2-133.2-0.1-73.4-59.8-133.2-133.2-133.2z" p-id="11915"></path></svg>