<?xml version="1.0" standalone="no"?><!DOCTYPE svg PUBLIC "-//W3C//DTD SVG 1.1//EN" "http://www.w3.org/Graphics/SVG/1.1/DTD/svg11.dtd"><svg t="1640438762029" class="icon" viewBox="0 0 1024 1024" version="1.1" xmlns="http://www.w3.org/2000/svg" p-id="2142" xmlns:xlink="http://www.w3.org/1999/xlink" width="200" height="200"><defs><style type="text/css"></style></defs><path d="M508.151699 65.352427c-201.427659 0-359.863439 160.444179-359.863439 357.616864 0 89.38375 87.698888 217.755466 144.54997 281.790898l0 0.081864 2.940079 10.101055-2.695499-0.027629c55.162557 64.47136 159.607514 213.31841 161.675701 216.176504 13.6136 16.879436 32.455486 26.517957 52.930635 26.545586 20.393281 0 39.589246-9.638521 53.529294-26.845415 83.642336-106.72572 103.409328-137.656173 116.614612-158.102854 9.801628-15.192004 14.647182-22.815635 44.952613-57.636698 15.411623-17.752316 150.730992-176.670745 150.730992-292.083312C873.515635 225.796606 709.579358 65.352427 508.151699 65.352427zM679.384448 678.95036c-32.891432 37.871539-38.907696 47.12939-49.77156 64.009849-11.899492 18.431791-31.801566 49.224098-113.566058 153.609517-2.803974 3.511987-6.043894 5.418406-9.065841 5.418406-2.99534-0.026606-6.154416-1.879813-7.897177-3.976568-4.409607-6.206352-108.418617-152.494113-165.160201-218.871893-51.922637-60.71378-134.258158-183.994548-134.258158-256.17038 0-166.488849 138.396577-301.966403 308.485223-301.966403 170.089669 0 308.459639 135.477554 308.459639 301.966403C816.611339 490.490104 745.49376 602.988294 679.384448 678.95036zM508.17933 229.90825c-93.608723 0-169.789828 74.518181-169.789828 166.134785 0 91.588975 76.181105 166.107155 169.789828 166.107155 93.579046 0 169.70796-74.517157 169.70796-166.107155C677.88729 304.425408 601.759399 229.90825 508.17933 229.90825zM508.17933 506.499729c-62.26971 0-112.939769-49.579185-112.939769-110.457718 0-60.931744 50.670059-110.4833 112.939769-110.4833 62.214449 0 112.856878 49.551556 112.856878 110.4833C621.037231 456.920544 570.393779 506.499729 508.17933 506.499729z" p-id="2143"></path></svg>