<?xml version="1.0" standalone="no"?><!DOCTYPE svg PUBLIC "-//W3C//DTD SVG 1.1//EN" "http://www.w3.org/Graphics/SVG/1.1/DTD/svg11.dtd"><svg t="1641127917730" class="icon" viewBox="0 0 1024 1024" version="1.1" xmlns="http://www.w3.org/2000/svg" p-id="4437" xmlns:xlink="http://www.w3.org/1999/xlink" width="200" height="200"><defs><style type="text/css"></style></defs><path d="M256 896m32 0l448 0q32 0 32 32l0 0q0 32-32 32l-448 0q-32 0-32-32l0 0q0-32 32-32Z" p-id="4438"></path><path d="M800 416a288 288 0 1 0-576 0c0 118.144 94.528 272.128 288 456.576 193.472-184.448 288-338.432 288-456.576zM512 960c-234.688-213.312-352-394.688-352-544a352 352 0 0 1 704 0c0 149.312-117.312 330.688-352 544z" p-id="4439"></path><path d="M512 512a96 96 0 1 0 0-192 96 96 0 0 0 0 192z m0 64a160 160 0 1 1 0-320 160 160 0 0 1 0 320z" p-id="4440"></path></svg>