<?xml version="1.0" standalone="no"?><!DOCTYPE svg PUBLIC "-//W3C//DTD SVG 1.1//EN" "http://www.w3.org/Graphics/SVG/1.1/DTD/svg11.dtd"><svg t="1641127951833" class="icon" viewBox="0 0 1024 1024" version="1.1" xmlns="http://www.w3.org/2000/svg" p-id="5265" xmlns:xlink="http://www.w3.org/1999/xlink" width="200" height="200"><defs><style type="text/css"></style></defs><path d="M358.4 0H102.4a102.4 102.4 0 0 0-102.4 102.4v256a102.4 102.4 0 0 0 102.4 102.4h358.4V102.4a102.4 102.4 0 0 0-102.4-102.4z m0 358.4H102.4V102.4h256zM921.6 0h-256a102.4 102.4 0 0 0-102.4 102.4v358.4h358.4a102.4 102.4 0 0 0 102.4-102.4V102.4a102.4 102.4 0 0 0-102.4-102.4z m0 358.4h-256V102.4h256zM921.6 563.2h-358.4v358.4a102.4 102.4 0 0 0 102.4 102.4h256a102.4 102.4 0 0 0 102.4-102.4v-256a102.4 102.4 0 0 0-102.4-102.4z m0 358.4h-256v-256h256zM0 665.6v256a102.4 102.4 0 0 0 102.4 102.4h256a102.4 102.4 0 0 0 102.4-102.4v-358.4H102.4a102.4 102.4 0 0 0-102.4 102.4z m358.4 256H102.4v-256h256z" p-id="5266"></path></svg>